<?xml version="1.0" encoding="UTF-8"?>
<svg xmlns="http://www.w3.org/2000/svg" xmlns:xlink="http://www.w3.org/1999/xlink" width="26px" height="26px" viewBox="0 0 26 26" version="1.1">
<g id="surface1">
<path style=" stroke:none;fill-rule:nonzero;fill:rgb(76.862745%,76.862745%,76.862745%);fill-opacity:0.501961;" d="M 25.230469 13.070312 C 25.230469 19.789062 19.734375 25.234375 12.957031 25.234375 C 6.179688 25.234375 0.683594 19.789062 0.683594 13.070312 C 0.683594 6.351562 6.179688 0.90625 12.957031 0.90625 C 19.734375 0.90625 25.230469 6.351562 25.230469 13.070312 Z M 25.230469 13.070312 "/>
<path style=" stroke:none;fill-rule:evenodd;fill:rgb(100%,100%,100%);fill-opacity:1;" d="M 16.734375 8.15625 L 15.222656 8.15625 C 14.183594 8.15625 14.214844 8.523438 14.214844 9.199219 L 14.214844 10.261719 L 16.734375 10.261719 L 16.230469 13.070312 L 14.214844 13.070312 L 14.214844 20.554688 L 10.691406 20.554688 L 10.691406 13.070312 L 9.179688 13.070312 L 9.179688 10.261719 L 10.691406 10.261719 L 10.691406 8.941406 C 10.691406 6.835938 11.820312 5.582031 14.492188 5.582031 L 16.734375 5.582031 Z M 16.734375 8.15625 "/>
</g>
</svg>
