<?xml version="1.0" encoding="UTF-8"?>
<svg xmlns="http://www.w3.org/2000/svg" xmlns:xlink="http://www.w3.org/1999/xlink" width="26px" height="26px" viewBox="0 0 26 26" version="1.1">
<g id="surface1">
<path style=" stroke:none;fill-rule:nonzero;fill:rgb(76.862745%,76.862745%,76.862745%);fill-opacity:0.501961;" d="M 25.363281 13.070312 C 25.363281 19.789062 19.867188 25.234375 13.089844 25.234375 C 6.3125 25.234375 0.816406 19.789062 0.816406 13.070312 C 0.816406 6.351562 6.3125 0.90625 13.089844 0.90625 C 19.867188 0.90625 25.363281 6.351562 25.363281 13.070312 Z M 25.363281 13.070312 "/>
<path style=" stroke:none;fill-rule:evenodd;fill:rgb(100%,100%,100%);fill-opacity:1;" d="M 9.976562 5.628906 C 9.171875 5.664062 8.625 5.792969 8.144531 5.976562 C 7.648438 6.167969 7.226562 6.421875 6.804688 6.839844 C 6.386719 7.257812 6.128906 7.671875 5.933594 8.164062 C 5.746094 8.640625 5.621094 9.1875 5.582031 9.984375 C 5.546875 10.78125 5.539062 11.035156 5.539062 13.070312 C 5.539062 15.101562 5.546875 15.359375 5.582031 16.15625 C 5.621094 16.953125 5.746094 17.496094 5.933594 17.972656 C 6.128906 18.464844 6.386719 18.882812 6.804688 19.300781 C 7.226562 19.714844 7.648438 19.972656 8.144531 20.164062 C 8.625 20.347656 9.171875 20.476562 9.976562 20.511719 C 10.78125 20.546875 11.039062 20.554688 13.089844 20.554688 C 15.140625 20.554688 15.398438 20.546875 16.203125 20.511719 C 17.007812 20.476562 17.558594 20.347656 18.039062 20.164062 C 18.535156 19.972656 18.957031 19.714844 19.375 19.300781 C 19.796875 18.882812 20.054688 18.464844 20.246094 17.972656 C 20.433594 17.496094 20.5625 16.953125 20.597656 16.15625 C 20.632812 15.359375 20.644531 15.101562 20.644531 13.070312 C 20.644531 11.035156 20.632812 10.78125 20.597656 9.984375 C 20.5625 9.1875 20.433594 8.640625 20.246094 8.164062 C 20.054688 7.671875 19.796875 7.257812 19.375 6.839844 C 18.957031 6.421875 18.535156 6.167969 18.039062 5.976562 C 17.558594 5.792969 17.007812 5.664062 16.203125 5.628906 C 15.398438 5.59375 15.140625 5.582031 13.089844 5.582031 C 11.039062 5.582031 10.78125 5.59375 9.976562 5.628906 Z M 10.039062 19.164062 C 9.300781 19.128906 8.902344 19.007812 8.636719 18.90625 C 8.285156 18.769531 8.03125 18.609375 7.769531 18.347656 C 7.503906 18.085938 7.339844 17.835938 7.203125 17.484375 C 7.101562 17.222656 6.976562 16.824219 6.941406 16.09375 C 6.90625 15.304688 6.898438 15.070312 6.898438 13.070312 C 6.898438 11.070312 6.90625 10.835938 6.941406 10.042969 C 6.976562 9.316406 7.101562 8.917969 7.203125 8.65625 C 7.339844 8.304688 7.503906 8.054688 7.769531 7.792969 C 8.03125 7.53125 8.285156 7.371094 8.636719 7.234375 C 8.902344 7.132812 9.300781 7.007812 10.039062 6.976562 C 10.835938 6.941406 11.074219 6.933594 13.089844 6.933594 C 15.105469 6.933594 15.347656 6.941406 16.140625 6.976562 C 16.878906 7.007812 17.277344 7.132812 17.542969 7.234375 C 17.898438 7.371094 18.148438 7.53125 18.414062 7.792969 C 18.675781 8.054688 18.839844 8.304688 18.976562 8.65625 C 19.082031 8.917969 19.203125 9.316406 19.238281 10.042969 C 19.273438 10.835938 19.28125 11.070312 19.28125 13.070312 C 19.28125 15.070312 19.273438 15.304688 19.238281 16.09375 C 19.203125 16.824219 19.082031 17.222656 18.976562 17.484375 C 18.839844 17.835938 18.675781 18.085938 18.414062 18.347656 C 18.148438 18.609375 17.898438 18.769531 17.542969 18.90625 C 17.277344 19.007812 16.878906 19.128906 16.140625 19.164062 C 15.347656 19.199219 15.105469 19.207031 13.089844 19.207031 C 11.074219 19.207031 10.835938 19.199219 10.039062 19.164062 Z M 16.214844 9.074219 C 16.214844 9.570312 16.621094 9.972656 17.121094 9.972656 C 17.621094 9.972656 18.027344 9.570312 18.027344 9.074219 C 18.027344 8.578125 17.621094 8.175781 17.121094 8.175781 C 16.621094 8.175781 16.214844 8.578125 16.214844 9.074219 Z M 9.210938 13.070312 C 9.210938 15.195312 10.949219 16.914062 13.089844 16.914062 C 15.234375 16.914062 16.96875 15.195312 16.96875 13.070312 C 16.96875 10.945312 15.234375 9.226562 13.089844 9.226562 C 10.949219 9.226562 9.210938 10.945312 9.210938 13.070312 Z M 10.574219 13.070312 C 10.574219 11.691406 11.699219 10.574219 13.089844 10.574219 C 14.480469 10.574219 15.609375 11.691406 15.609375 13.070312 C 15.609375 14.449219 14.480469 15.566406 13.089844 15.566406 C 11.699219 15.566406 10.574219 14.449219 10.574219 13.070312 Z M 10.574219 13.070312 "/>
</g>
</svg>
