<?xml version="1.0" encoding="UTF-8"?>
<svg xmlns="http://www.w3.org/2000/svg" xmlns:xlink="http://www.w3.org/1999/xlink" width="26px" height="26px" viewBox="0 0 26 26" version="1.1">
<g id="surface1">
<path style=" stroke:none;fill-rule:nonzero;fill:rgb(76.862745%,76.862745%,76.862745%);fill-opacity:0.501961;" d="M 25.183594 13.070312 C 25.183594 19.789062 19.6875 25.234375 12.910156 25.234375 C 6.132812 25.234375 0.636719 19.789062 0.636719 13.070312 C 0.636719 6.351562 6.132812 0.90625 12.910156 0.90625 C 19.6875 0.90625 25.183594 6.351562 25.183594 13.070312 Z M 25.183594 13.070312 "/>
<path style=" stroke:none;fill-rule:evenodd;fill:rgb(100%,100%,100%);fill-opacity:1;" d="M 20.460938 8.070312 C 19.90625 8.332031 19.308594 8.511719 18.683594 8.589844 C 19.320312 8.179688 19.8125 7.535156 20.042969 6.761719 C 19.445312 7.140625 18.78125 7.414062 18.078125 7.5625 C 17.511719 6.921875 16.707031 6.519531 15.816406 6.519531 C 14.101562 6.519531 12.714844 8 12.714844 9.828125 C 12.714844 10.085938 12.742188 10.339844 12.796875 10.582031 C 10.21875 10.441406 7.9375 9.125 6.410156 7.125 C 6.140625 7.613281 5.988281 8.179688 5.988281 8.789062 C 5.988281 9.933594 6.535156 10.945312 7.367188 11.539062 C 6.859375 11.523438 6.382812 11.375 5.964844 11.125 C 5.964844 11.140625 5.964844 11.152344 5.964844 11.167969 C 5.964844 12.769531 7.03125 14.105469 8.449219 14.410156 C 8.191406 14.488281 7.914062 14.527344 7.632812 14.527344 C 7.433594 14.527344 7.238281 14.507812 7.050781 14.46875 C 7.445312 15.78125 8.589844 16.738281 9.945312 16.765625 C 8.882812 17.652344 7.546875 18.179688 6.097656 18.179688 C 5.847656 18.179688 5.601562 18.164062 5.355469 18.132812 C 6.730469 19.074219 8.359375 19.621094 10.109375 19.621094 C 15.808594 19.621094 18.925781 14.582031 18.925781 10.210938 C 18.925781 10.066406 18.921875 9.925781 18.914062 9.78125 C 19.519531 9.316406 20.046875 8.734375 20.460938 8.070312 Z M 20.460938 8.070312 "/>
</g>
</svg>
