<?xml version="1.0" encoding="UTF-8"?>
<svg xmlns="http://www.w3.org/2000/svg" xmlns:xlink="http://www.w3.org/1999/xlink" width="26px" height="26px" viewBox="0 0 26 26" version="1.1">
<g id="surface1">
<path style=" stroke:none;fill-rule:nonzero;fill:rgb(76.862745%,76.862745%,76.862745%);fill-opacity:0.501961;" d="M 25.316406 13.070312 C 25.316406 19.789062 19.820312 25.234375 13.042969 25.234375 C 6.265625 25.234375 0.769531 19.789062 0.769531 13.070312 C 0.769531 6.351562 6.265625 0.90625 13.042969 0.90625 C 19.820312 0.90625 25.316406 6.351562 25.316406 13.070312 Z M 25.316406 13.070312 "/>
<path style=" stroke:none;fill-rule:evenodd;fill:rgb(100%,100%,100%);fill-opacity:1;" d="M 15.882812 12.855469 L 11.621094 10.746094 C 11.621094 10.746094 10.4375 10.214844 10.4375 11.214844 L 10.4375 15.90625 C 10.4375 15.90625 10.460938 16.621094 11.621094 16.140625 C 12.429688 15.804688 15.882812 14.03125 15.882812 14.03125 C 15.882812 14.03125 16.761719 13.46875 15.882812 12.855469 Z M 21.085938 17.546875 C 20.558594 19.035156 19.433594 19.226562 18.484375 19.425781 C 17.089844 19.714844 8.109375 19.679688 6.652344 19.191406 C 5.742188 18.886719 5.183594 18.753906 4.757812 16.609375 C 4.484375 15.238281 4.46875 11.199219 4.757812 9.808594 C 5.039062 8.460938 5.746094 7.828125 7.125 7.699219 C 10.824219 7.351562 17.011719 7.398438 18.957031 7.699219 C 20.761719 7.972656 21.136719 9.039062 21.324219 10.042969 C 21.628906 11.667969 21.664062 15.925781 21.085938 17.546875 Z M 21.085938 17.546875 "/>
</g>
</svg>
